<?xml version="1.0" encoding="UTF-8"?>
<svg xmlns="http://www.w3.org/2000/svg" xmlns:xlink="http://www.w3.org/1999/xlink" width="100px" height="82px" viewBox="0 0 100 82" version="1.1">
<g id="surface1">
<path style=" stroke:none;fill-rule:nonzero;fill:rgb(69.411765%,9.803922%,21.176471%);fill-opacity:1;" d="M 100 75.78125 L 0.113281 75.78125 L 0.113281 6.394531 L 100 6.394531 Z M 100 75.78125 "/>
<path style=" stroke:none;fill-rule:evenodd;fill:rgb(95.294118%,90.980392%,76.862745%);fill-opacity:1;" d="M 60.621094 17.269531 C 60.578125 17.308594 60.121094 17.988281 59.613281 18.292969 C 59.101562 18.597656 57.777344 18.960938 57.609375 18.976562 C 57.445312 18.988281 56.605469 19.902344 56.429688 20.164062 C 56.386719 20.226562 56.359375 20.300781 56.320312 20.363281 C 56.28125 20.429688 56.214844 20.464844 56.167969 20.527344 C 56.128906 20.578125 56.113281 20.625 56.070312 20.671875 C 55.925781 20.832031 55.636719 21.203125 55.734375 21.4375 C 55.804688 21.609375 56.042969 21.609375 56.179688 21.546875 C 56.378906 21.453125 56.613281 21.277344 56.800781 21.160156 C 56.976562 21.046875 57.125 20.886719 57.304688 20.75 C 57.613281 20.519531 57.894531 20.417969 58.265625 20.609375 C 58.566406 20.761719 58.867188 21.0625 59.03125 21.355469 C 59.289062 21.824219 58.738281 22.152344 58.484375 22.449219 C 58.324219 22.632812 58.105469 23.074219 58.238281 23.328125 C 58.410156 23.648438 58.8125 23.328125 59 23.1875 C 59.628906 22.722656 59.714844 21.804688 60.621094 21.777344 C 60.601562 22.285156 60.621094 22.796875 60.621094 23.300781 C 60.414062 23.578125 60.242188 23.824219 60.035156 24.09375 C 59.945312 24.210938 58.445312 26.550781 57.898438 27.738281 C 57.347656 28.925781 56.894531 30.785156 56.722656 31.476562 C 56.65625 31.738281 56.621094 31.996094 56.601562 32.261719 L 49.964844 32.261719 C 50.070312 31.882812 50.042969 31.433594 50.144531 31.101562 C 50.707031 29.242188 53.691406 24.953125 53.867188 24.617188 C 54.066406 24.234375 54.246094 23.90625 54.605469 23.640625 C 54.710938 23.558594 54.804688 23.515625 54.894531 23.414062 C 55.058594 23.234375 55.4375 23.136719 55.667969 23.21875 C 55.957031 23.316406 56.058594 23.667969 56.277344 23.855469 C 56.347656 23.914062 56.402344 23.992188 56.460938 24.070312 C 56.617188 24.28125 56.742188 24.5 56.917969 24.691406 C 57.046875 24.839844 57.136719 25.019531 57.269531 25.160156 C 57.441406 25.351562 57.890625 25.738281 57.875 25.242188 C 57.863281 24.828125 57.613281 24.46875 57.398438 24.132812 C 57.101562 23.671875 56.726562 23.3125 56.386719 22.914062 C 55.984375 22.445312 55.402344 21.722656 54.636719 22.050781 C 54.175781 22.25 53.671875 23.875 53.058594 23.292969 C 52.910156 23.152344 52.929688 22.757812 52.917969 22.578125 C 52.910156 22.410156 52.902344 22.242188 52.902344 22.078125 C 52.902344 21.953125 52.851562 21.71875 52.925781 21.613281 C 52.972656 21.539062 53.082031 21.542969 53.167969 21.539062 C 53.273438 21.535156 53.375 21.542969 53.476562 21.523438 C 53.707031 21.472656 54.90625 21.296875 55.027344 20.960938 C 55.214844 20.433594 54.53125 20.660156 54.300781 20.730469 C 53.277344 21.054688 52.851562 20.597656 52.175781 19.902344 C 51.816406 19.535156 51.5625 19.007812 51.117188 18.722656 C 50.679688 18.445312 50.152344 18.378906 49.726562 18.097656 C 49.417969 17.894531 49.15625 17.613281 48.90625 17.382812 C 48.660156 17.152344 48.613281 17.058594 48.421875 16.746094 C 48.019531 16.089844 47.691406 15.519531 47.386719 14.832031 C 47.101562 14.183594 46.949219 13.539062 46.949219 12.78125 C 46.949219 12.230469 47.066406 11.960938 47.238281 11.441406 C 47.277344 11.332031 47.332031 11.171875 47.367188 11.003906 L 53.363281 11.003906 C 53.324219 11.003906 53.308594 11.164062 53.289062 11.191406 C 53.25 11.242188 53.167969 11.273438 53.109375 11.273438 C 53.019531 11.277344 52.84375 11.296875 52.839844 11.417969 C 52.839844 11.402344 52.480469 11.523438 52.445312 11.53125 C 52.292969 11.554688 52.128906 11.566406 51.972656 11.566406 C 51.667969 11.5625 51.429688 11.457031 51.128906 11.484375 C 50.757812 11.519531 50.738281 11.753906 50.503906 12.007812 C 50.308594 12.21875 50.042969 12.386719 49.898438 12.625 C 49.542969 12.828125 49.433594 13.21875 49.351562 13.640625 C 49.308594 13.882812 49.203125 14.128906 49.222656 14.378906 C 49.234375 14.503906 49.289062 14.566406 49.3125 14.679688 C 49.34375 14.820312 49.296875 14.988281 49.335938 15.125 C 49.375 15.253906 49.492188 15.332031 49.550781 15.445312 C 49.609375 15.546875 49.621094 15.707031 49.683594 15.804688 C 49.742188 15.894531 49.832031 16.089844 49.894531 16.152344 C 49.992188 16.257812 50.117188 16.28125 50.179688 16.402344 C 50.28125 16.601562 50.152344 16.886719 50.265625 17.082031 C 50.332031 17.203125 50.445312 17.253906 50.5 17.386719 C 50.523438 17.4375 50.53125 17.683594 50.554688 17.714844 L 50.5625 17.734375 C 50.597656 17.835938 50.925781 17.796875 51 17.777344 C 51.140625 17.742188 51.234375 17.648438 51.273438 17.507812 C 51.3125 17.371094 51.328125 17.210938 51.234375 17.09375 C 51.042969 16.851562 50.800781 16.957031 50.722656 16.59375 C 50.628906 16.148438 50.566406 15.605469 50.746094 15.175781 C 50.847656 14.941406 51.15625 14.761719 51.386719 14.6875 C 51.488281 14.65625 51.625 14.628906 51.726562 14.667969 C 51.820312 14.707031 51.808594 14.808594 51.867188 14.871094 C 51.953125 14.964844 52.097656 14.910156 52.210938 14.933594 C 52.308594 14.953125 52.285156 15.007812 52.355469 15.054688 C 52.414062 15.09375 52.507812 15.074219 52.578125 15.074219 C 52.734375 15.074219 52.84375 15.03125 52.902344 14.902344 C 52.929688 14.847656 52.921875 14.757812 52.964844 14.726562 C 53.054688 14.664062 53.132812 14.777344 53.148438 14.625 C 53.152344 14.5625 53.117188 14.476562 53.085938 14.417969 C 53.042969 14.332031 52.988281 14.242188 52.902344 14.1875 C 52.761719 14.097656 52.238281 13.914062 52.054688 13.996094 C 51.894531 14.070312 51.957031 14.195312 51.757812 14.214844 C 51.671875 14.222656 51.339844 14.167969 51.265625 14.132812 C 51.101562 14.054688 51.058594 13.882812 51.039062 13.71875 C 51.011719 13.542969 50.976562 13.339844 51.042969 13.167969 C 51.105469 13.007812 51.179688 12.890625 51.289062 12.761719 C 51.34375 12.6875 51.417969 12.644531 51.476562 12.585938 C 51.535156 12.527344 51.550781 12.445312 51.597656 12.382812 C 51.660156 12.296875 51.710938 12.304688 51.8125 12.289062 C 51.910156 12.273438 51.90625 12.238281 51.964844 12.167969 C 52.351562 11.675781 53.160156 12.101562 53.636719 11.8125 C 53.726562 11.753906 53.84375 11.621094 53.882812 11.511719 C 53.914062 11.410156 53.988281 11.117188 53.960938 11.019531 C 53.960938 11.015625 53.957031 11.011719 53.957031 11.003906 L 54.765625 11.003906 C 54.753906 11.105469 54.792969 11.195312 54.714844 11.28125 C 54.675781 11.324219 54.335938 11.421875 54.378906 11.496094 C 54.390625 11.515625 54.449219 11.511719 54.46875 11.519531 C 54.527344 11.53125 54.589844 11.546875 54.648438 11.554688 C 54.792969 11.578125 54.941406 11.589844 55.085938 11.589844 C 55.261719 11.589844 55.449219 11.605469 55.625 11.582031 C 55.6875 11.574219 55.839844 11.570312 55.878906 11.5 C 55.949219 11.367188 55.625 11.308594 55.554688 11.285156 C 55.449219 11.242188 55.34375 11.191406 55.234375 11.15625 C 55.164062 11.132812 55.152344 11.089844 55.113281 11.03125 C 55.109375 11.023438 55.101562 11.015625 55.097656 11.003906 L 59.804688 11.003906 C 60.253906 11.003906 60.621094 11.371094 60.621094 11.824219 Z M 60.621094 21.003906 C 60.621094 21.152344 59.597656 20.660156 59.53125 20.628906 C 59.289062 20.511719 58.96875 20.246094 58.960938 19.972656 C 58.945312 19.636719 59.191406 19.433594 59.449219 19.28125 C 59.605469 19.191406 59.714844 19.132812 59.839844 19.023438 C 60.019531 18.871094 60.28125 18.742188 60.511719 18.683594 C 60.546875 18.671875 60.582031 18.671875 60.621094 18.667969 Z M 60.621094 25.972656 C 60.519531 26.0625 59.8125 27.527344 59.253906 29.058594 C 58.699219 30.59375 58.59375 31.875 58.625 32.261719 L 57.386719 32.261719 C 57.421875 31.894531 57.59375 31.554688 57.660156 31.1875 C 57.695312 31.003906 58.230469 29.453125 58.40625 29.09375 C 58.511719 28.875 58.617188 28.65625 58.71875 28.441406 C 59 27.859375 60.621094 24.84375 60.621094 24.667969 Z M 60.621094 31.441406 C 60.621094 31.894531 60.253906 32.261719 59.804688 32.261719 L 59.515625 32.261719 C 59.511719 32.117188 59.585938 30.90625 59.773438 30.117188 C 59.964844 29.324219 60.476562 28.097656 60.621094 27.820312 Z M 48.753906 32.261719 L 42.867188 32.261719 C 43.054688 32.019531 43.199219 31.710938 43.320312 31.507812 C 43.488281 31.222656 43.703125 30.929688 43.773438 30.585938 C 43.847656 30.253906 43.796875 29.878906 43.84375 29.542969 C 43.984375 28.589844 44.390625 28.605469 45.140625 28.328125 C 45.875 28.058594 46.402344 27.070312 46.578125 26.34375 C 46.6875 25.890625 46.898438 25.429688 47.175781 25.054688 C 47.324219 24.855469 47.476562 24.722656 47.683594 24.601562 C 47.894531 24.480469 48.296875 24.019531 47.820312 24.019531 C 47.613281 24.019531 47.34375 24.160156 47.171875 24.269531 C 46.960938 24.402344 46.804688 24.601562 46.675781 24.808594 C 46.257812 25.476562 46 26.246094 45.316406 26.699219 C 45.09375 26.84375 44.539062 27.121094 44.542969 26.648438 C 44.542969 26.3125 44.847656 25.945312 45.027344 25.679688 C 45.199219 25.425781 45.519531 25.191406 45.695312 24.953125 C 45.890625 24.683594 45.976562 24.359375 46.183594 24.070312 C 46.394531 23.769531 46.601562 23.453125 46.816406 23.148438 C 47.097656 22.753906 47.265625 22.28125 47.484375 21.847656 C 47.582031 21.648438 47.703125 21.457031 47.8125 21.261719 C 48.109375 20.714844 48.292969 20.226562 48.347656 19.601562 C 48.371094 19.351562 48.355469 19.144531 48.445312 18.898438 C 48.609375 18.441406 48.921875 18.308594 49.277344 18.703125 C 50.164062 19.691406 50.933594 20.871094 51.566406 22 C 51.742188 22.316406 51.832031 22.652344 51.964844 22.941406 C 52.113281 23.269531 52.382812 23.558594 52.558594 23.878906 C 52.71875 24.175781 52.734375 24.480469 52.699219 24.828125 C 52.675781 25.066406 52.707031 25.417969 52.464844 25.550781 C 52.265625 25.660156 51.953125 25.648438 51.75 25.550781 C 51.601562 25.480469 51.433594 25.335938 51.257812 25.292969 C 51.085938 25.25 50.84375 25.25 50.683594 25.335938 C 50.578125 25.390625 50.464844 25.429688 50.363281 25.492188 C 50.253906 25.5625 49.386719 26.574219 49.335938 26.6875 C 49.28125 26.816406 49.179688 26.917969 49.113281 27.042969 C 49.0625 27.128906 49.050781 27.335938 49.085938 27.433594 C 49.105469 27.484375 49.171875 27.511719 49.199219 27.5625 C 49.246094 27.664062 49.453125 27.707031 49.554688 27.699219 C 49.746094 27.6875 49.859375 27.511719 49.957031 27.378906 C 50.089844 27.203125 50.242188 27.039062 50.371094 26.859375 C 50.585938 26.5625 50.484375 26.515625 50.832031 26.425781 C 51.03125 26.375 51.269531 26.363281 51.46875 26.40625 C 51.542969 26.789062 51.367188 26.949219 51.222656 27.257812 C 51.027344 27.667969 50.003906 29.167969 49.738281 29.632812 C 49.304688 30.386719 48.734375 31.300781 48.753906 32.261719 M 42.1875 32.261719 L 41.570312 32.261719 C 41.871094 31.949219 42.175781 31.285156 41.734375 31.078125 C 41.46875 30.953125 41.304688 31.164062 41.171875 31.398438 C 41.082031 31.550781 41.003906 31.710938 40.917969 31.792969 C 40.601562 32.101562 40.105469 32.023438 39.730469 32.234375 C 39.371094 32.148438 39.105469 31.824219 39.105469 31.441406 L 39.105469 24.621094 C 39.453125 24.59375 39.839844 24.480469 40.085938 24.460938 C 40.480469 24.425781 40.851562 24.601562 41.230469 24.664062 C 41.625 24.730469 41.808594 24.886719 42.097656 25.15625 C 42.53125 25.558594 42.972656 26.128906 43.070312 26.710938 C 43.183594 27.367188 43.027344 28.097656 43.027344 28.761719 C 43.027344 29.53125 42.9375 30.207031 42.824219 30.933594 C 42.742188 31.433594 42.292969 31.78125 42.1875 32.261719 M 39.105469 17.097656 C 39.109375 17.09375 39.113281 17.089844 39.113281 17.082031 C 39.167969 16.996094 39.226562 16.980469 39.277344 16.917969 C 39.398438 16.765625 39.527344 16.550781 39.527344 16.371094 C 39.527344 16.171875 39.441406 16.015625 39.375 15.84375 C 39.296875 15.640625 39.277344 15.4375 39.277344 15.191406 C 39.277344 14.953125 39.308594 14.777344 39.320312 14.546875 C 39.328125 14.304688 39.269531 14.160156 39.234375 13.953125 C 39.214844 13.835938 39.320312 13.722656 39.300781 13.621094 C 39.28125 13.542969 39.148438 13.46875 39.109375 13.394531 C 39.109375 13.390625 39.109375 13.390625 39.105469 13.386719 L 39.105469 11.824219 C 39.105469 11.371094 39.472656 11.003906 39.921875 11.003906 L 40.945312 11.003906 C 40.957031 11.023438 40.96875 11.042969 40.984375 11.058594 C 41.394531 11.511719 41.578125 12.269531 41.660156 12.71875 C 41.742188 13.171875 41.292969 13.273438 41.066406 13.476562 C 40.808594 13.714844 40.46875 14.109375 40.378906 14.457031 C 40.324219 14.675781 40.332031 14.945312 40.351562 15.183594 C 40.402344 15.050781 40.523438 14.957031 40.683594 14.984375 C 40.699219 15.347656 40.535156 15.65625 40.589844 16.007812 C 40.652344 16.445312 42.894531 15.128906 43.046875 15.019531 C 43.566406 14.652344 44.515625 14.070312 44.730469 13.421875 C 44.949219 12.765625 46.039062 11.128906 46.039062 11.128906 C 46.078125 11.105469 46.105469 11.0625 46.117188 11.003906 L 46.523438 11.003906 C 46.480469 11.195312 46.464844 11.375 46.460938 11.46875 C 46.433594 12.027344 46.277344 12.511719 46.253906 13.066406 C 46.222656 13.882812 46.179688 14.78125 46.492188 15.519531 C 46.792969 16.226562 47.609375 16.582031 47.765625 17.328125 C 47.871094 17.820312 47.847656 18.050781 47.734375 18.519531 C 47.640625 18.886719 47.722656 19.289062 47.636719 19.664062 C 47.507812 20.1875 47.09375 20.378906 46.867188 20.8125 C 46.703125 21.121094 46.695312 21.605469 46.550781 21.960938 C 46.347656 22.472656 46.125 22.976562 45.84375 23.449219 C 45.726562 23.644531 45.589844 23.808594 45.472656 24 C 45.355469 24.183594 44.957031 24.847656 44.871094 25.015625 C 44.691406 25.347656 44.3125 25.945312 43.886719 25.933594 C 43.578125 25.929688 43.492188 25.542969 43.394531 25.28125 C 43.179688 24.683594 42.742188 24.277344 42.179688 23.960938 C 41.277344 23.449219 40.144531 23.671875 39.105469 23.816406 Z M 44.996094 11.003906 C 45.039062 11.121094 45.109375 11.285156 45.007812 11.449219 C 44.847656 11.714844 43.988281 12.308594 43.925781 12.390625 C 43.867188 12.472656 43.128906 12.535156 42.742188 12.414062 C 42.367188 12.292969 41.914062 11.078125 41.886719 11.003906 Z M 44.925781 19.234375 C 45.042969 19.316406 45.136719 19.339844 45.242188 19.304688 C 45.324219 19.277344 45.4375 19.242188 45.507812 19.191406 C 45.578125 19.140625 45.570312 19.09375 45.613281 19.046875 C 45.691406 18.953125 45.8125 18.910156 45.902344 18.835938 C 45.976562 18.769531 46.09375 18.691406 46.117188 18.589844 C 46.136719 18.527344 46.101562 18.457031 46.128906 18.394531 C 46.167969 18.316406 46.230469 18.328125 46.296875 18.273438 C 46.355469 18.214844 46.449219 18.09375 46.4375 18.023438 C 46.417969 17.933594 46.269531 17.824219 46.21875 17.746094 C 46.085938 17.546875 45.992188 17.625 45.828125 17.714844 C 45.753906 17.753906 45.667969 17.777344 45.582031 17.792969 C 45.472656 17.816406 45.359375 17.828125 45.261719 17.859375 C 45.128906 17.898438 45.140625 17.882812 45.050781 17.984375 C 45.003906 18.039062 44.941406 18.082031 44.886719 18.136719 C 44.785156 18.234375 44.550781 18.589844 44.589844 18.738281 C 44.617188 18.847656 44.832031 19.167969 44.925781 19.234375 M 56.027344 14.046875 C 55.929688 14.027344 55.621094 13.988281 55.855469 13.835938 C 55.933594 13.789062 56.503906 13.96875 56.507812 13.90625 C 56.523438 13.738281 56.152344 13.632812 56.019531 13.585938 C 55.777344 13.5 55.257812 13.4375 55.007812 13.519531 C 54.957031 13.539062 54.8125 13.636719 54.789062 13.679688 C 54.675781 13.707031 54.585938 13.867188 54.515625 13.960938 C 54.464844 14.027344 54.203125 14.183594 54.433594 14.246094 C 54.445312 14.425781 54.589844 14.496094 54.730469 14.542969 C 54.972656 14.621094 55.214844 14.78125 55.472656 14.785156 C 55.683594 14.785156 55.902344 14.597656 55.863281 14.359375 C 56.03125 14.308594 56.113281 14.261719 56.296875 14.257812 C 56.347656 14.0625 56.167969 14.078125 56.035156 14.046875 C 56.03125 14.046875 56.03125 14.046875 56.027344 14.046875 M 59.355469 13.800781 C 59.277344 13.667969 59.285156 13.5625 59.226562 13.445312 C 59.125 13.246094 58.925781 13.09375 58.808594 12.90625 C 58.597656 12.566406 58.425781 12.039062 57.96875 11.871094 C 57.683594 11.765625 57.382812 11.746094 57.078125 11.753906 C 56.90625 11.753906 56.722656 11.714844 56.550781 11.757812 C 56.300781 11.824219 56.351562 12.113281 56.457031 12.300781 C 56.578125 12.511719 56.8125 12.628906 56.929688 12.847656 C 57.015625 13.007812 57.023438 13.371094 56.925781 13.527344 C 56.78125 13.546875 56.695312 13.769531 56.84375 13.835938 C 56.832031 13.980469 56.925781 14.113281 57.0625 14.136719 C 57.109375 14.320312 57.101562 14.488281 57.265625 14.613281 C 57.296875 14.640625 57.355469 14.648438 57.394531 14.65625 C 57.390625 14.75 57.445312 14.847656 57.457031 14.933594 C 57.46875 15.023438 57.460938 15.128906 57.457031 15.21875 C 57.449219 15.40625 57.289062 15.515625 57.273438 15.699219 C 57.261719 15.867188 57.277344 16.085938 57.210938 16.238281 C 57.136719 16.414062 56.984375 16.585938 57.164062 16.761719 C 57.304688 16.898438 57.519531 16.75 57.609375 16.613281 C 57.683594 16.5 57.753906 16.390625 57.777344 16.257812 C 57.796875 16.125 57.761719 16.003906 57.828125 15.875 C 57.855469 15.820312 57.84375 15.761719 57.867188 15.710938 C 57.890625 15.65625 57.957031 15.664062 57.96875 15.601562 C 58.007812 15.585938 58.035156 15.5625 58.070312 15.546875 C 58.070312 15.535156 58.070312 15.519531 58.074219 15.507812 C 58.234375 15.441406 58.535156 15.527344 58.617188 15.6875 C 58.683594 15.820312 58.664062 16.066406 58.613281 16.203125 C 58.5625 16.339844 58.476562 16.363281 58.402344 16.488281 C 58.355469 16.566406 58.355469 16.691406 58.3125 16.75 C 58.230469 16.871094 58.109375 16.886719 58.027344 17.027344 C 57.9375 17.175781 57.824219 17.53125 58.082031 17.566406 C 58.242188 17.589844 58.261719 17.484375 58.328125 17.375 C 58.410156 17.238281 58.570312 17.214844 58.710938 17.15625 C 58.734375 17.03125 58.824219 16.9375 58.882812 16.832031 C 58.941406 16.730469 58.945312 16.621094 58.984375 16.515625 C 59.078125 16.246094 59.195312 15.992188 59.304688 15.730469 C 59.523438 15.199219 59.707031 14.625 59.539062 14.050781 C 59.5 13.921875 59.417969 13.90625 59.355469 13.800781 M 54.015625 18.175781 C 53.921875 18.191406 53.515625 18.121094 53.566406 18.3125 C 53.589844 18.402344 53.734375 18.40625 53.753906 18.515625 C 53.761719 18.578125 54.035156 18.632812 54.085938 18.613281 C 54.179688 18.574219 54.382812 18.34375 54.34375 18.230469 C 54.292969 18.085938 54.144531 18.15625 54.015625 18.175781 M 55.542969 16.996094 C 55.503906 16.945312 55.464844 16.90625 55.425781 16.878906 C 55.125 16.675781 54.417969 16.675781 54.070312 16.707031 C 53.871094 16.722656 53.652344 16.738281 53.472656 16.753906 C 53.257812 16.777344 53.03125 16.753906 52.8125 16.777344 C 52.484375 16.8125 52.410156 16.925781 52.1875 17.121094 C 51.984375 17.300781 51.84375 17.292969 51.8125 17.609375 C 51.804688 17.722656 51.769531 18.234375 51.894531 18.3125 C 52.070312 18.421875 52.207031 18.132812 52.269531 18.035156 C 52.382812 17.863281 52.558594 17.734375 52.714844 17.609375 C 53.214844 17.59375 53.714844 17.601562 54.234375 17.574219 C 54.460938 17.5625 54.742188 17.480469 54.960938 17.554688 C 54.984375 17.5625 55.050781 17.636719 55.097656 17.65625 C 55.289062 17.730469 55.375 17.691406 55.484375 17.910156 C 55.542969 18.023438 55.492188 18.304688 55.671875 18.308594 C 55.800781 18.3125 55.84375 17.84375 55.839844 17.75 C 55.835938 17.550781 55.699219 17.195312 55.542969 16.996094 M 40.058594 28.765625 C 39.886719 29.082031 39.808594 29.652344 40 29.988281 C 40.332031 30.578125 40.808594 29.796875 40.976562 29.183594 C 41.035156 28.980469 41.054688 28.792969 41.027344 28.679688 C 40.878906 28.074219 40.265625 28.378906 40.058594 28.765625 "/>
<path style=" stroke:none;fill-rule:nonzero;fill:rgb(95.294118%,90.980392%,76.862745%);fill-opacity:1;" d="M 31.46875 44.457031 C 30.8125 45.566406 29.605469 47.960938 28.8125 47.285156 C 28.28125 46.835938 29.261719 44.785156 29.671875 44.171875 C 30.078125 43.554688 31.019531 42.449219 31.507812 42.695312 C 31.773438 42.828125 32.121094 43.351562 31.46875 44.457031 M 33.382812 44.960938 C 33.382812 43.355469 33.449219 41.796875 33.210938 40.996094 C 32.957031 40.140625 32.023438 39.800781 30.753906 40.769531 C 30.527344 40.941406 30.304688 41.195312 30.046875 41.46875 C 28.894531 42.707031 26.945312 45.203125 26.582031 47.015625 C 26.566406 47.082031 26.5625 47.164062 26.566406 47.257812 C 26.332031 47.574219 25.859375 47.707031 25.609375 47.546875 C 25.253906 47.320312 25.058594 47.195312 25.222656 46.003906 C 25.328125 45.199219 25.277344 44.144531 25.289062 43.363281 C 25.382812 41.53125 25.0625 40.96875 24.519531 41.015625 C 24.164062 41.050781 24.101562 41.113281 23.8125 41.597656 C 23.515625 42.09375 23.296875 42.773438 23.203125 43.269531 C 22.886719 44.992188 23.390625 47.277344 22.019531 47.097656 C 21.28125 47 21.386719 46.023438 21.375 45.199219 C 21.363281 44.679688 21.363281 44.226562 21.375 43.589844 C 21.386719 42.894531 21.578125 41.679688 21.601562 40.984375 C 21.625 40.511719 20.894531 39.988281 20.421875 39.964844 C 20.316406 39.964844 20.222656 39.976562 20.128906 40.011719 C 19.789062 40.117188 19.542969 40.425781 19.53125 40.800781 C 19.484375 42.101562 19.445312 43.695312 19.472656 45.003906 C 19.496094 47.105469 19.695312 48.566406 20.09375 49.25 C 20.304688 49.628906 20.320312 50.023438 21.089844 50.117188 C 21.855469 50.214844 22.433594 49.378906 23.269531 48.640625 C 24.519531 50.117188 25.832031 49.992188 27.023438 49.453125 C 27.234375 49.359375 27.414062 49.234375 27.527344 49.0625 C 27.800781 49.257812 28.132812 49.382812 28.535156 49.390625 C 29.167969 49.402344 29.609375 49.082031 30.023438 48.703125 C 30.433594 48.328125 30.886719 47.570312 30.902344 47.726562 C 31.195312 50.882812 33.710938 49.460938 33.808594 48.066406 C 33.863281 47.238281 33.382812 46.46875 33.382812 44.960938 "/>
<path style=" stroke:none;fill-rule:nonzero;fill:rgb(95.294118%,90.980392%,76.862745%);fill-opacity:1;" d="M 75.730469 45.5625 C 75.480469 45.441406 75.835938 44.214844 76.421875 43.625 C 77.851562 42.195312 78.589844 41.691406 78.867188 41.898438 C 79.140625 42.105469 78.914062 42.890625 77.902344 43.765625 C 77.265625 44.320312 75.984375 45.679688 75.730469 45.5625 M 80 44.769531 C 80.71875 43.988281 80.957031 43.109375 80.929688 41.933594 C 80.898438 40.414062 79.261719 39.539062 77.179688 40.484375 C 77.027344 40.542969 75.054688 41.753906 74.113281 43.558594 C 73.386719 44.953125 73.550781 46.582031 73.597656 46.769531 C 74.007812 48.765625 75.078125 50.15625 79.3125 49.808594 C 80.960938 49.550781 80.660156 47.515625 78.425781 47.417969 C 77.183594 47.363281 77.144531 47.390625 76.484375 47.328125 C 76.859375 47.128906 77.246094 46.914062 77.625 46.679688 C 78.519531 46.125 79.363281 45.476562 80 44.769531 "/>
<path style=" stroke:none;fill-rule:nonzero;fill:rgb(95.294118%,90.980392%,76.862745%);fill-opacity:1;" d="M 59.390625 62.28125 C 59.140625 62.160156 59.496094 60.933594 60.082031 60.347656 C 61.511719 58.914062 62.25 58.414062 62.527344 58.621094 C 62.800781 58.828125 62.574219 59.609375 61.5625 60.484375 C 60.925781 61.039062 59.644531 62.398438 59.390625 62.28125 M 63.660156 61.488281 C 64.378906 60.707031 64.617188 59.828125 64.589844 58.652344 C 64.558594 57.132812 62.921875 56.257812 60.839844 57.203125 C 60.6875 57.261719 58.714844 58.472656 57.773438 60.277344 C 57.046875 61.675781 57.210938 63.300781 57.257812 63.488281 C 57.667969 65.484375 58.738281 66.875 62.972656 66.527344 C 64.621094 66.269531 64.109375 64.421875 62.871094 64.320312 C 61.628906 64.214844 60.804688 64.109375 60.144531 64.046875 C 60.519531 63.847656 60.90625 63.636719 61.285156 63.398438 C 62.179688 62.84375 63.023438 62.195312 63.660156 61.488281 "/>
<path style=" stroke:none;fill-rule:nonzero;fill:rgb(95.294118%,90.980392%,76.862745%);fill-opacity:1;" d="M 58.816406 43.246094 C 59.242188 43.132812 59.125 44.144531 58.957031 44.777344 C 58.785156 45.410156 58.140625 46.464844 57.621094 47.152344 C 57.363281 47.503906 56.855469 47.976562 56.457031 47.976562 C 56.058594 47.976562 56.03125 46.808594 56.769531 45.441406 C 57.484375 44.117188 58.390625 43.359375 58.816406 43.246094 M 55.984375 50.128906 C 56.621094 50.136719 57.0625 49.820312 57.472656 49.441406 C 57.886719 49.066406 58.335938 48.308594 58.351562 48.460938 C 58.644531 51.621094 61.164062 50.199219 61.257812 48.804688 C 61.316406 47.976562 60.832031 47.207031 60.832031 45.695312 C 60.832031 44.089844 60.902344 42.535156 60.664062 41.734375 C 60.40625 40.878906 59.476562 40.539062 58.203125 41.507812 C 57.976562 41.679688 57.757812 41.933594 57.5 42.203125 C 56.34375 43.445312 54.398438 45.941406 54.03125 47.753906 C 53.917969 48.308594 54.445312 50.105469 55.984375 50.128906 "/>
<path style=" stroke:none;fill-rule:nonzero;fill:rgb(95.294118%,90.980392%,76.862745%);fill-opacity:1;" d="M 20.820312 37.628906 C 21.597656 37.226562 21.308594 35.988281 20.402344 35.84375 C 19.953125 35.773438 13.847656 37.410156 10.523438 38.992188 C 9.136719 39.65625 10.066406 41.394531 11.125 41.015625 L 15.699219 39.757812 L 15.707031 44.554688 C 15.71875 46.5625 15.371094 48.882812 14.0625 49.59375 C 11.503906 50.742188 8.761719 49.261719 7.324219 47.410156 C 6.785156 46.710938 5.113281 46.519531 4.996094 47.203125 C 4.996094 47.203125 4.710938 47.777344 5.609375 48.882812 C 6.238281 49.660156 8.335938 51.445312 10.265625 51.917969 C 12.019531 52.351562 14.238281 52.121094 15.308594 51.28125 C 15.332031 51.257812 15.378906 51.222656 15.4375 51.175781 C 16.542969 50.230469 17.273438 48.699219 17.601562 46.480469 C 17.90625 44.460938 18.261719 42.160156 17.933594 38.832031 C 17.933594 38.832031 20.042969 38.03125 20.820312 37.628906 "/>
<path style=" stroke:none;fill-rule:nonzero;fill:rgb(95.294118%,90.980392%,76.862745%);fill-opacity:1;" d="M 40.019531 40.902344 C 38.722656 40.835938 37.847656 42.363281 37.621094 42.394531 C 37.394531 42.425781 37.429688 41.289062 37.429688 41.289062 C 37.441406 40.820312 36.917969 40.367188 36.445312 40.355469 C 35.976562 40.34375 35.234375 40.835938 35.222656 41.652344 C 35.222656 41.652344 35.082031 47.589844 35.097656 48.304688 C 35.113281 49.023438 35.269531 49.605469 36.199219 49.605469 C 37.386719 49.59375 37.179688 49.023438 37.265625 47.496094 C 37.351562 45.964844 37.65625 44.636719 38.660156 43.402344 C 39.152344 42.796875 40.007812 43.25 40.019531 44.441406 L 39.824219 47.980469 C 39.824219 49.023438 40.050781 50.289062 41.152344 50.515625 C 41.71875 50.632812 42.445312 49.972656 42.445312 48.664062 C 42.445312 47.625 41.894531 46.550781 41.863281 42.558594 C 41.855469 41.746094 40.828125 40.941406 40.019531 40.902344 "/>
<path style=" stroke:none;fill-rule:nonzero;fill:rgb(95.294118%,90.980392%,76.862745%);fill-opacity:1;" d="M 67.839844 47.808594 C 67.769531 47.878906 66.691406 48.9375 66.332031 49.226562 C 65.105469 50.210938 64.746094 49.375 65.226562 48.609375 C 65.695312 47.996094 67.46875 46.132812 67.65625 45.957031 C 68.398438 45.25 69.128906 44.507812 69.53125 44.691406 C 70.390625 45.125 68.582031 47.121094 67.839844 47.808594 M 73.21875 49.71875 C 72.75 48.351562 72.390625 45.710938 72.359375 43.796875 C 72.34375 42.933594 72.679688 40.792969 72.789062 38.527344 C 72.851562 37.230469 72.164062 36.976562 71.683594 36.953125 C 71.210938 36.929688 70.835938 37.132812 70.761719 37.601562 C 70.144531 41.394531 71.898438 41.734375 68.988281 43.199219 C 68.574219 43.40625 68.140625 43.683594 67.707031 44 C 67.140625 44.402344 66.445312 45.152344 65.902344 45.648438 C 65.421875 46.097656 64.808594 46.8125 64.695312 46.738281 C 64.582031 46.667969 64.671875 38.03125 64.671875 38.03125 C 64.671875 37.558594 64.160156 37.324219 63.691406 37.324219 C 63.207031 37.324219 62.550781 37.808594 62.550781 38.277344 L 62.460938 47.621094 C 62.460938 47.871094 62.546875 48.574219 62.859375 48.640625 C 62.960938 48.660156 63.136719 48.855469 62.964844 49.84375 C 62.871094 50.378906 63.078125 50.949219 63.351562 51.167969 C 63.664062 51.417969 63.964844 51.894531 64.703125 51.910156 C 66.242188 51.941406 68.339844 49.785156 68.824219 49.347656 C 69.53125 48.6875 70.207031 47.40625 70.605469 47.375 C 70.746094 48.378906 70.957031 49.457031 71.25 50.304688 C 71.40625 50.753906 71.851562 50.984375 72.296875 50.828125 C 72.742188 50.664062 73.371094 50.167969 73.21875 49.71875 "/>
<path style=" stroke:none;fill-rule:nonzero;fill:rgb(95.294118%,90.980392%,76.862745%);fill-opacity:1;" d="M 54.261719 37.738281 C 54.261719 37.738281 53.585938 39.285156 52.84375 41.453125 C 51.71875 44.765625 50.554688 49.054688 50.328125 49.050781 C 49.957031 49.046875 49.6875 47.683594 49.6875 47.683594 L 46.894531 38.230469 C 46.363281 36.863281 44.402344 36.972656 44.511719 39.160156 C 44.597656 40.859375 45.65625 42.765625 46.636719 45.550781 C 47.617188 48.335938 48.976562 51.234375 48.976562 51.234375 C 49.472656 52.53125 51.132812 52.273438 51.484375 51.234375 C 51.484375 51.234375 52.355469 48.664062 53.445312 45.496094 C 54.535156 42.328125 55.949219 38.886719 55.949219 38.886719 C 56.496094 37.082031 54.695312 36.371094 54.261719 37.738281 "/>
<path style=" stroke:none;fill-rule:nonzero;fill:rgb(95.294118%,90.980392%,76.862745%);fill-opacity:1;" d="M 93.835938 45.640625 C 92.699219 45.621094 86.09375 48.828125 85.804688 48.558594 C 85.726562 48.460938 91.71875 43.957031 91.71875 43.957031 C 91.964844 43.746094 92.527344 43.222656 92.527344 42.566406 C 92.527344 41.910156 92.082031 41.207031 90.832031 41.367188 C 88.90625 41.621094 84.589844 42.972656 83.453125 43.4375 C 82.316406 43.898438 82.046875 44.246094 82.046875 44.632812 C 82.046875 45.019531 82.164062 45.96875 83.105469 45.910156 C 84.050781 45.851562 87.5 44.09375 88.078125 44.210938 C 88.507812 44.296875 83.085938 48.304688 81.257812 49.699219 C 79.8125 50.839844 81.320312 52.476562 82.394531 52.113281 C 84.28125 51.476562 86.535156 50.355469 88.945312 49.503906 C 91.351562 48.65625 94.300781 47.707031 94.300781 47.707031 C 94.652344 47.578125 95.085938 47.242188 95.109375 46.546875 C 95.132812 45.855469 94.722656 45.65625 93.835938 45.640625 "/>
<path style=" stroke:none;fill-rule:nonzero;fill:rgb(95.294118%,90.980392%,76.862745%);fill-opacity:1;" d="M 48.15625 63.617188 C 47.285156 63.59375 46.84375 64.285156 46.171875 64.414062 C 44.667969 64.6875 43.152344 64.71875 42.140625 64.335938 C 40.835938 63.828125 40.148438 63.039062 39.695312 61.964844 C 39.105469 60.574219 39.234375 59.148438 39.46875 58.09375 C 39.738281 56.871094 40.238281 55.480469 41.027344 54.621094 C 41.878906 53.695312 44.078125 53.039062 44.867188 53.019531 C 45.65625 52.996094 45.789062 53.292969 46.449219 53.273438 C 47.113281 53.25 47.277344 52.898438 47.316406 52.613281 C 47.359375 52.328125 46.664062 51.054688 44.660156 51.054688 C 43.191406 51.054688 40.332031 51.671875 39.023438 53.433594 C 37.71875 55.195312 36.859375 57.121094 36.902344 59.742188 C 36.902344 61.261719 37.757812 64.539062 39.839844 65.605469 C 41.925781 66.667969 43.75 68 47.410156 66.390625 C 49.71875 65.378906 49.023438 63.636719 48.15625 63.617188 "/>
<path style=" stroke:none;fill-rule:nonzero;fill:rgb(95.294118%,90.980392%,76.862745%);fill-opacity:1;" d="M 48.925781 57.277344 C 48.753906 57.914062 48.105469 58.964844 47.589844 59.652344 C 47.332031 60.003906 46.820312 60.476562 46.425781 60.476562 C 46.027344 60.476562 45.996094 59.308594 46.738281 57.941406 C 47.453125 56.617188 48.355469 55.859375 48.78125 55.746094 C 49.210938 55.632812 49.09375 56.644531 48.925781 57.277344 M 55.621094 51.03125 C 54.804688 51.046875 54.09375 51.308594 53.554688 51.78125 C 52.566406 52.628906 52.214844 54.015625 52.273438 56.425781 C 52.273438 56.425781 52.546875 58.554688 52.246094 58.746094 C 51.945312 58.9375 51.019531 59.238281 50.886719 59.101562 C 50.75 58.964844 50.800781 58.652344 50.800781 58.195312 C 50.800781 56.59375 50.871094 55.035156 50.628906 54.234375 C 50.375 53.378906 49.441406 53.039062 48.171875 54.007812 C 47.945312 54.179688 47.722656 54.433594 47.464844 54.707031 C 46.3125 55.945312 44.363281 58.441406 44 60.253906 C 43.886719 60.808594 44.414062 62.605469 45.953125 62.628906 C 46.585938 62.636719 47.027344 62.320312 47.441406 61.941406 C 47.851562 61.566406 48.105469 61.027344 48.234375 61.035156 C 48.605469 61.054688 48.421875 62.898438 49.808594 62.917969 C 50.671875 62.933594 51.097656 61.882812 51.199219 61.609375 C 51.320312 61.28125 51.914062 61.117188 52.054688 61.199219 C 52.199219 61.28125 52.136719 64.085938 52.320312 65.253906 C 52.484375 66.292969 53.074219 67.191406 53.628906 67.179688 C 54.179688 67.167969 55.011719 66.359375 54.9375 65.582031 C 54.8125 64.3125 54.300781 62.816406 54.300781 60.5625 C 54.300781 60.453125 56.140625 59.988281 56.710938 59.804688 C 57.285156 59.621094 57.796875 59.007812 57.816406 58.351562 C 57.832031 57.839844 57.367188 57.394531 56.875 57.367188 C 56.121094 57.324219 55.160156 58.246094 54.382812 58.0625 C 54.195312 58.019531 54.261719 56.527344 54.261719 56.527344 C 54.226562 54.757812 54.394531 53.320312 55.625 53.035156 C 56.332031 52.871094 56.902344 53.882812 57.609375 53.882812 C 58.238281 53.882812 58.480469 53.195312 58.402344 52.734375 C 58.210938 51.617188 56.4375 51.011719 55.621094 51.03125 "/>
<path style=" stroke:none;fill-rule:nonzero;fill:rgb(95.294118%,90.980392%,76.862745%);fill-opacity:1;" d="M 63.25 52.707031 C 62.871094 52.308594 62.136719 52.714844 61.722656 53.089844 L 60.523438 54.238281 C 60.113281 54.617188 60.148438 55.082031 60.523438 55.496094 C 60.902344 55.910156 61.585938 55.625 61.996094 55.25 L 63.222656 54.019531 C 63.632812 53.640625 63.613281 53.121094 63.25 52.707031 "/>
<path style=" stroke:none;fill-rule:nonzero;fill:rgb(95.294118%,90.980392%,76.862745%);fill-opacity:1;" d="M 65.339844 65.195312 L 65.414062 65.195312 C 65.523438 65.195312 65.589844 65.1875 65.613281 65.179688 C 65.640625 65.171875 65.660156 65.160156 65.675781 65.136719 C 65.691406 65.117188 65.695312 65.09375 65.695312 65.066406 C 65.695312 65.042969 65.691406 65.019531 65.675781 65 C 65.660156 64.980469 65.640625 64.964844 65.613281 64.957031 C 65.585938 64.949219 65.519531 64.945312 65.414062 64.945312 L 65.339844 64.945312 Z M 65.15625 65.710938 L 65.15625 64.800781 L 65.339844 64.800781 C 65.515625 64.800781 65.609375 64.800781 65.632812 64.800781 C 65.691406 64.804688 65.738281 64.820312 65.773438 64.835938 C 65.808594 64.855469 65.835938 64.886719 65.859375 64.925781 C 65.882812 64.964844 65.894531 65.007812 65.894531 65.054688 C 65.894531 65.121094 65.871094 65.179688 65.828125 65.226562 C 65.785156 65.273438 65.726562 65.300781 65.648438 65.3125 C 65.675781 65.324219 65.695312 65.335938 65.710938 65.347656 C 65.726562 65.359375 65.746094 65.382812 65.773438 65.417969 C 65.78125 65.425781 65.800781 65.460938 65.839844 65.527344 L 65.949219 65.710938 L 65.71875 65.710938 L 65.644531 65.5625 C 65.59375 65.464844 65.550781 65.402344 65.515625 65.375 C 65.484375 65.351562 65.441406 65.335938 65.390625 65.335938 L 65.339844 65.335938 L 65.339844 65.710938 Z M 65.542969 64.5625 C 65.425781 64.5625 65.3125 64.589844 65.207031 64.648438 C 65.097656 64.707031 65.011719 64.792969 64.949219 64.902344 C 64.886719 65.015625 64.855469 65.128906 64.855469 65.25 C 64.855469 65.371094 64.886719 65.488281 64.949219 65.597656 C 65.007812 65.707031 65.09375 65.789062 65.203125 65.851562 C 65.3125 65.914062 65.425781 65.945312 65.542969 65.945312 C 65.664062 65.945312 65.777344 65.914062 65.886719 65.851562 C 65.996094 65.789062 66.078125 65.707031 66.140625 65.597656 C 66.203125 65.488281 66.230469 65.371094 66.230469 65.25 C 66.230469 65.128906 66.199219 65.015625 66.140625 64.902344 C 66.078125 64.792969 65.992188 64.707031 65.882812 64.648438 C 65.773438 64.589844 65.660156 64.5625 65.542969 64.5625 M 65.542969 64.394531 C 65.691406 64.394531 65.828125 64.429688 65.964844 64.503906 C 66.097656 64.578125 66.207031 64.683594 66.28125 64.820312 C 66.359375 64.957031 66.398438 65.101562 66.398438 65.25 C 66.398438 65.402344 66.359375 65.542969 66.285156 65.679688 C 66.210938 65.816406 66.105469 65.921875 65.96875 65.996094 C 65.832031 66.074219 65.691406 66.109375 65.542969 66.109375 C 65.394531 66.109375 65.253906 66.074219 65.117188 65.996094 C 64.980469 65.921875 64.875 65.816406 64.800781 65.679688 C 64.726562 65.542969 64.6875 65.402344 64.6875 65.25 C 64.6875 65.101562 64.726562 64.957031 64.804688 64.820312 C 64.878906 64.683594 64.984375 64.578125 65.121094 64.503906 C 65.253906 64.429688 65.394531 64.394531 65.542969 64.394531 "/>
</g>
</svg>
